<?xml version="1.0" encoding="UTF-8"?>
<svg id="Capa_1" xmlns="http://www.w3.org/2000/svg" viewBox="0 0 659.79 260.14">
  <defs>
    <style>
      .cls-1 {
        stroke: #ffffff;
        stroke-miterlimit: 10;
        stroke-width: 3px;
      }
    </style>
  </defs>
  <path class="cls-1" d="M142.55,258.4c-5.82-1.78-11.75-2.93-17.2-6.45-19.96-12.87-22.48-33.76-10.92-55.85,5.54-10.58,14.61-16.49,23.91-20.78,33.95-15.64,56.78-43.23,63.64-88.39,2.02-13.28-.55-24.23-11.39-30.17.87-3.75,3.32-1.86,4.89-2.66,4.33-.04,8.66-.07,12.99-.11.85-.02,1.7-.04,2.55-.06,13.61-3.93,18.72,7.26,21.36,20.01,3.64,17.53,9.77,33.83,14.67,50.72,10.33,35.61,21.21,70.98,31.9,106.43.89,2.96,2.12,5.77,3.15,8.67,1.62,4.58,3.79,7.27,8.43,7.98,3.46.53,4.9-.32,4.43,4.04.14-1.29.45,2.94-1.26,3.27-.47.01-16.8.17-24.49.09-7.21-.07-14.53-.25-21.75.64-6.9.85-6.25-1.41-6.25-3.27,0-2.45,2.06-1.94,3.34-2.46,9.63-3.12,14.11-12.67,10.95-25.01-2.97-11.62-6.7-22.94-10.15-34.36-1.72-5.69-3.08-11.62-6.25-17.38-4.55,27.4-7.47,34.67-23.03,57.7-5.51,4.9-11.03,9.8-16.54,14.7-18.1,10.37-37.2,13.97-57,12.71ZM216.52,96.78c-2.29-7.77-4-15.83-7.66-23.8-.6,4.58-.9,8.28-1.58,11.87-5.53,29.43-16.46,54.57-36.62,73.05-10.76,9.86-23.03,16.46-33.9,25.99-15.64,13.7-19.88,35.76-9.76,52.1,8.65,12.52,20.24,16.09,32.86,16.11,14.47.03,28.09-5.19,40.71-13.17,20.29-12.82,32.32-33.21,33.54-62.1,2.07-16.55-3.53-31.1-7.85-45.99-3.25-11.36-6.5-22.71-9.74-34.07Z"/>
  <path class="cls-1" d="M182.41,79.07c0,42.42-33.31,76.48-75.84,77.54h-.05c-.65.02-1.31.02-1.96.02-10.31,0-20.43-2.05-30.08-6.09,0,0,0,0,0,0h0c-4.14-1.75-8.5-2.72-12.95-2.87-.93-.05-1.85-.05-2.78,0-.05,0-.07,0-.07,0-.06.01-.12.01-.18.02-.01,0-.02,0-.03,0-12.68.81-22.62,11.2-22.62,23.65v59.03s0,.03,0,.04c0,8.62,7.21,15.63,16.08,15.63,1.15,0,2.08,1.07,2.08,2.38s-.93,2.38-2.08,2.38h-18.1s-.04.01-.06.01h-12.05s-.04-.01-.06-.01H3.58c-1.15,0-2.08-1.07-2.08-2.38s.93-2.38,2.08-2.38c8.81,0,15.98-6.93,16.07-15.47v-47.25c0-11.18,4.67-21.94,12.81-29.53,7-6.56,16.12-10.4,25.7-10.84.18-.02.34-.03.43-.03.5-.02,1-.05,1.51-.05.02,0,.04.01.05.01.51,0,1.03.01,1.52.04,4.87.17,9.67,1.23,14.23,3.16t0,0h0c9.21,3.85,18.94,5.74,28.72,5.79.6,0,1.23,0,1.83-.02h0c33.78-1.05,57.37-30.98,57.37-72.79S134,6.26,97.33,6.26h-45.39s0,0-.01,0c-8.86,0-16.08,7.01-16.08,15.63v118.63c0,.88-.42,1.69-1.1,2.1-4.35,2.63-8.23,5.92-11.54,9.78-.4.46-.94.71-1.48.71-.26,0-.53-.06-.79-.18-.78-.37-1.29-1.24-1.29-2.2V21.84c-.03-8.6-7.23-15.58-16.07-15.58-1.15,0-2.08-1.06-2.08-2.38s.93-2.38,2.08-2.38h18.12s.02,0,.04,0h12.05s.02,0,.04,0h18.11s0,0,.01,0h52.63c42.93,0,77.85,34.8,77.85,77.57Z"/>
  <path d="M360,63.61c23.44,0,49.68,8.6,75.92,8.6l-12.56,29.57c-32.65,0-45.77-34.41-75.08-34.41s-48.01,31.99-48.01,76.35c0,60.76,37.12,98.66,75.08,98.66,29.31,0,51.91-22.58,64.19-49.47h2.51c-14.79,38.44-46.33,63.45-84.01,63.45-47.73,0-83.45-40.6-83.45-97.59s35.17-95.17,85.41-95.17Z"/>
  <path d="M495.39,253.95h-41.59l1.95-1.34c3.63-2.15,5.86-6.45,5.86-10.48V77.86c0-4.03-2.23-8.33-5.86-10.48l-1.95-1.35h41.59l-1.95,1.35c-3.35,2.15-5.86,6.45-5.86,10.48v164.26c0,4.03,2.51,8.33,5.86,10.48l1.95,1.34Z"/>
  <path d="M651.97,205.56c0,32.26-23.44,50.81-63.36,50.81-27.07,0-53.03-8.33-79.27-8.33l12.56-29.84c32.38,0,45.77,34.41,75.92,34.41,20.93,0,34.89-16.4,34.89-36.83,0-59.14-118.06-55.11-118.06-108.07,0-25,26.24-44.09,66.15-44.09,26.8,0,52.75,8.6,78.99,8.6l-12.28,29.57c-32.66,0-45.77-34.41-78.71-34.41-21.21,0-34.61,14.52-34.61,28.77,0,42.21,117.78,37.37,117.78,109.42Z"/>
</svg>